<?xml version="1.0" encoding="utf-8"?>
<!-- Generator: Adobe Illustrator 24.0.1, SVG Export Plug-In . SVG Version: 6.00 Build 0)  -->
<svg version="1.1" id="Layer_2_1_" xmlns="http://www.w3.org/2000/svg" xmlns:xlink="http://www.w3.org/1999/xlink" x="0px" y="0px"
	 viewBox="0 0 300 108" style="enable-background:new 0 0 300 108;" xml:space="preserve">
<style type="text/css">
	.st0{fill:#F84D08;}
	.st1{fill:#551901;}
	.st2{fill:#FFF200;}
	.st3{fill:#FFF000;}
</style>
<path class="st0" d="M35.7,28L35.7,28C24,40.4,13.2,56.3,6.9,70.6C3.6,78.2-4.3,96,7.3,103.5c6.4,4.1,14.6,1.9,21.6-5.7
	c2.6-2.9,5.5-7.2,8.4-11.7c-0.2,1.4-0.4,2.7-0.4,4v0.1c0,6,2.4,9.8,4.5,11.8c3,3.1,7,4.6,12,4.6c7.6,0,15.2-3.6,20.9-7.3
	c4.4,4.5,10.7,7,18.3,7c8,0,16.9-3.2,26.5-9.5c3,4.3,9,9.5,20.4,9.5c6.3,0,13.3-2,20.6-6c4,2.7,10.5,6,18.5,6c8.1,0,15.4-3,20.5-8.2
	c3.3,4,9.2,8.1,19.3,8.1c6.3,0,13.3-2,20.6-6c4,2.7,10.5,6,18.5,6c16.9,0,27.2-12.2,27.4-24l0-0.3c0-3.7-0.9-7.6-2.9-12
	c-0.6-1.4-1.4-2.8-2.3-4.2c0-0.1-0.1-0.2-0.1-0.2c1.1,0.5,2.2,1.3,3.4,2.4l3,2.7l12.1-17.2l-5.2-5.4c-6.7-7-15.5-7.5-19-7.3
	c0,0-0.1,0-0.1,0c0.5-2.1,0.7-4.3,0.7-6.7l0-3.9l-3.7-0.1c-18.3,0-18.6,0-18.8,0l-3.3,0.4v3.4c0,2.4,0,5-2.4,9
	c-0.2,0.4-0.4,0.7-0.7,1c-3-1.6-6.5-2.5-10.4-2.5c-3.4,0-11.7,0.6-20.9,7.2c-0.1-0.1-0.4-0.4-0.4-0.4c-6.7-7-15.5-7.5-19-7.3
	c-8.2,0.3-16,4.1-21,9.9c-3.6-6-9.9-9.3-17.6-9.4c-4.5-0.1-16,1.1-27.6,12.9c-0.4-1.1-0.9-2.3-1.5-3.3c-3.6-6.1-9.9-9.5-17.8-9.6
	c-1.9,0-5.1,0.2-8.9,1.3c3.7-5.5,5.5-11.5,5.5-17.8l0-1.1C105.5,8.6,92.8,1.6,81.2,1.5C67.7,1.4,52.8,10.1,35.7,28"/>
<path class="st1" d="M278.7,61.4c2.7,0.6,5,2.4,6.7,3.9l7.9-11.3l-3-3.1c-5.7-5.9-13.3-6.3-16.3-6.2c-1.9,0.1-3.9,0.4-5.9,0.9
	c0.3-0.7,0.7-1.3,0.9-1.9c1.9-4.5,1.7-9.1,1.7-9.7c0,0-18.1,0-18.4,0c0,2.7-0.1,6.2-3,11c-1,1.6-2,2.9-2.7,3.7l-0.3,0.4
	c-2.5-2-6.1-3.6-11.2-3.7c-3.5,0-12,0.8-21.3,8.4l-2.6-2.7c-5.7-5.9-13.3-6.3-16.3-6.2c-9,0.3-18.5,5.7-21.9,14.4
	c-0.4-2.1-1.1-4.2-2.2-6.1c-2.1-3.5-6.3-7.7-14.7-7.8c-4.1-0.1-14.8,1.1-25.7,12.5c-1.4,1.5-2.7,3.1-3.9,4.8
	c-0.1-3.3-0.9-6.6-2.6-9.5c-2.1-3.5-6.3-7.7-14.7-7.8c-4.1-0.1-14.8,1.1-25.7,12.5c-4.8,5.1-8.6,11.3-10.5,17.5
	c-0.2,0.6-0.5,2-0.7,3c-1.7,1.2-4.7,2.8-5.3,2.3c-0.4-0.3-0.3-1.1,0.1-2.6c0.6-2.3,1.5-4.8,2.3-6.9c2.7-7.3,1.4-10.6,0.1-11.7
	c4-1.2,10.5-3.1,17.5-8.2c10-7.3,15.3-16.4,15.3-26.3c0-0.3,0-0.6,0-1c-0.5-12.8-11-18.6-21.2-18.6c-12.5-0.1-26.5,8.2-42.8,25.4
	C26.9,42.7,16.4,58.2,10.3,72.1c-3.2,7.3-9.9,22.5-1,28.2c4.8,3.1,11.3,1.2,16.9-5.1c4-4.4,8.9-12.5,13.2-19.7
	c1.9-3.2,3.7-6.2,5.1-8.3c0.9-1.3,1.9-2.3,3-2.8c2.1-1.1,2.3-0.2,0.7,3.1l-0.4,0.8c-3.2,6.6-7.2,14.8-7.2,21.9c0,0,0,0,0,0.1
	c0,4.8,1.9,7.6,3.4,9.2c2.3,2.3,5.4,3.5,9.4,3.5c8.1,0,16.3-4.7,21.6-8.4c3.1,4.6,8.7,8.2,17.6,8.2c10,0,20.2-5.7,27.7-11.1
	c0.2,0.4,0.3,0.8,0.5,1.1c1.9,3.7,6.9,9.9,18.6,9.9c6.3,0,13.3-2.2,20.9-6.6c3.9,3,10.4,6.6,18.2,6.7c9.8,0,17.1-4.6,20.8-10.7
	c0.1,0.2,0.2,0.5,0.4,0.7c1.9,3.7,6.9,9.9,18.6,9.9c6.3,0,13.3-2.2,20.9-6.6c3.9,3,10.4,6.6,18.2,6.7c14.6,0,23.6-10.3,23.7-20.3
	c0-0.1,0-0.2,0-0.3c0-3.1-0.8-6.6-2.6-10.4c-0.5-1.2-1.3-2.5-2.1-3.9c-0.6-1.1-1.4-2.5-1.7-3.2C273.8,62.2,275.1,60.6,278.7,61.4
	 M77.3,29.8c-3,5-10.2,11.2-20.1,14.5c7-10.8,14.6-19.2,19.5-20.7C80.1,22.7,79.8,25.7,77.3,29.8z M106.2,61.2
	c0.1,0.8-0.1,2.1-0.6,3.5c-1,0-2.7,0-4,0C102.8,62.5,105.7,59,106.2,61.2z M107.9,82.1c-4.6,2.4-7.8,3.5-9.9,3.5c-3.2,0-3.3-3-2.2-7
	c3.8,0,11.2,0,17.6,0C111.5,80,109.6,81.1,107.9,82.1z M153.3,61.2c0.2,0.8-0.1,2.1-0.6,3.5c-1,0-2.7,0-3.9,0
	C149.9,62.5,152.8,59,153.3,61.2z M154.7,82.1c-4.6,2.4-7.8,3.5-9.9,3.5c-3.2,0-3.3-3-2.2-7c3.8,0,11.2,0,17.6,0
	C158.3,80,156.5,81.1,154.7,82.1z M178.4,85.2c-0.7,1.1-3.2,0.7-5.4-0.3c-1.9-0.9-3.7-2.6-4.9-3.9c0.7-1.1,2.7-3.8,4.5-9.5
	c0.9,3.3,2.6,6.2,4.4,9.1C178.3,82.8,178.9,84.5,178.4,85.2z M200,72.5c-0.1-0.2-0.2-0.5-0.3-0.7c-0.5-1.2-1.3-2.5-2.1-3.9
	c-0.6-1.1-1.4-2.5-1.7-3.2c-0.4-1-0.4-1.6-0.4-1.9c0,0,0,0,0,0c0-0.5,0.1-1.6,2.4-1.6c2.4,0,5.2,1.9,6.5,3
	C202.6,66.9,201.1,69.7,200,72.5z M232.1,61.2c0.2,0.8-0.1,2.1-0.6,3.5c-1,0-2.7,0-3.9,0C228.8,62.5,231.7,59,232.1,61.2z
	 M233.6,82.1c-4.6,2.4-7.8,3.5-9.9,3.5c-3.2,0-3.3-3-2.2-7c3.8,0,11.2,0,17.6,0C237.2,80,235.4,81.1,233.6,82.1z M257.2,85.2
	c-0.7,1.1-3.2,0.7-5.4-0.3c-1.9-0.9-3.7-2.6-4.9-3.9c0.7-1.1,2.7-3.8,4.5-9.5c0.9,3.3,2.6,6.2,4.4,9.1
	C257.2,82.8,257.8,84.5,257.2,85.2z"/>
<path class="st2" d="M265.1,39.1c0,0-8.2,0-8.2,0c-0.6,6-5.2,11.7-6.6,13.1c0.6,0.9,1.2,2,1.2,2C258.9,50.6,264.5,43.7,265.1,39.1"
	/>
<path class="st3" d="M197.9,56c2.9,0,5.3,1.3,7,2.6c0,0,2.9-4.1,2.9-4.1c-4.4-4.6-10.5-4.8-12.5-4.7c-9,0.3-18.5,6.9-18.4,16.5
	c0,4,1.6,7.1,4.3,11.5c1.2,1.9,2.2,3.8,2.5,6c0.5,2.9-0.6,6.7-7,6.8c-7.7,0.1-12-5.6-14-7.9c-6,3.9-13.5,7.9-19.1,7.7
	c-7.8-0.3-8-7.6-4.5-16.7h27.3c3.5-7.1,4.5-23.2-10.2-23.4c-5.9-0.1-14.2,2.7-22,11c-3.9,4.2-7.1,9.2-9,14.4
	c-0.1,0.1-0.1,0.1-0.1,0.1c0,0,0,0.1-0.1,0.1c-3,2.5-18.7,14.8-28.4,14.5c-7.8-0.3-8-7.6-4.5-16.7h27.3c3.4-7.1,4.5-23.2-10.2-23.4
	c-5.9-0.1-14.2,2.7-22,11c-4.2,4.5-7.6,9.9-9.3,15.5c-0.3,0.9-0.9,3.7-1,4.2c-3.8,2.4-9.3,5.2-11.9,5.2c-2.8-0.1-4.3-1.9-3.9-4.7
	c0.4-3.6,2.3-9.1,3.5-12.4c2.7-7.2-1.2-10.8-4.1-12.3c13.2-2,37.3-13.7,36.6-32.8C96.9,13.1,87,10.5,81.1,10.5
	C70,10.4,57.2,18.3,42,34.3c-12,12.6-21.6,27.6-27.1,40c-2.9,6.6-7.8,18.5-3,21.7c3.1,2,7.5-0.9,10.5-4.2c5.5-6,13.3-20.5,17.8-27.4
	c3-4.5,6.7-5.9,9.9-5.8c4,0.1,6.3,3.4,2.4,11.3c-3,6.1-7.1,14.3-7.1,20.3c0,2.8,0.9,7.5,7.7,7.5c8.8,0,19.5-7.6,23.8-11.5h0
	c0.6,4.7,4.4,11.3,15.4,11.3c11.4,0,24.1-9,31.1-15.1c0,0,0,0.1,0,0.3c-0.2,2.5,0.2,5.1,1.5,7.6c1.9,3.7,6.1,7.2,14.2,7.2
	c7.3,0,15-3.6,21.5-7.8c1.8,2.2,9,7.8,17.7,7.9c11.7,0,18.5-7.7,18.6-15.2c0-2.8-0.9-5.8-2.1-8.4c-0.9-2-3.1-5.3-3.9-7.2
	c-0.6-1.5-0.9-2.9-0.8-4.1C190.6,58,194.2,56,197.9,56 M150.3,56.7c2.3-1.6,5.5-2,6.9,0.2c2.2,3.5,0.6,8.7-0.4,12h-15.6
	C143.6,63.5,147.1,58.9,150.3,56.7z M103.4,56.7c2.3-1.6,5.5-2,6.9,0.2c2.2,3.5,0.6,8.7-0.4,12H94.3
	C96.7,63.5,100.2,58.9,103.4,56.7z M48,50.5c5.5-10,18.5-31,29.9-32.2c6.7-0.7,8.6,5.2,5.3,11.8c-3,5.9-8.4,10.8-15.4,14.6
	C58.3,49.8,48.6,50.5,48,50.5z"/>
<path class="st2" d="M274.1,49.8c-9,0.3-18.5,6.9-18.4,16.5c0,4,1.6,7.1,4.3,11.5c1.2,1.9,2.2,3.8,2.5,6c0.4,2.9-0.6,6.7-7,6.8
	c-7.7,0.1-12-5.6-14-7.9c-6,3.9-13.5,7.9-19.1,7.7c-7.8-0.3-8-7.6-4.5-16.7h27.3c3.4-7.1,4.5-23.2-10.2-23.4
	c-5.9-0.1-14.2,2.7-22,11c-4.2,4.5-7.6,9.9-9.3,15.5c-1.4,4.4-2,9,0.4,13.5c1.9,3.7,6.1,7.2,14.1,7.2c7.3,0,15-3.6,21.5-7.8
	c1.8,2.2,9,7.9,17.7,7.9c11.7,0,18.5-7.7,18.6-15.2c0-2.8-0.9-5.8-2.1-8.4c-0.9-2-3.1-5.3-3.9-7.2c-0.6-1.5-0.9-2.9-0.8-4.1
	c0.2-4.6,3.8-6.6,7.5-6.6c2.9,0,5.3,1.3,7,2.6c0,0,2.9-4.1,2.9-4.1C282.3,49.9,276.1,49.8,274.1,49.8 M229.3,56.7
	c2.3-1.6,5.5-2,6.9,0.2c2.2,3.5,0.6,8.7-0.4,12h-15.6C222.5,63.5,226,58.9,229.3,56.7z"/>
</svg>
